<?xml version="1.0" encoding="utf-8"?>
<!-- Generator: Adobe Illustrator 23.0.3, SVG Export Plug-In . SVG Version: 6.00 Build 0)  -->
<svg version="1.1" id="Isolation_Mode" xmlns="http://www.w3.org/2000/svg" xmlns:xlink="http://www.w3.org/1999/xlink" x="0px"
	 y="0px" viewBox="0 0 29 31.8" style="enable-background:new 0 0 29 31.8;" xml:space="preserve">
<style type="text/css">
	.st0{fill:#301C38;}
</style>
<g>
	<g>
		<path class="st0" d="M29,5.5c-0.1-0.1-0.3-0.2-0.5-0.2h-6.4l-1.5-3.5c-0.2-0.5-0.6-0.9-1.1-1.3C19,0.2,18.5,0,17.9,0h-6.6
			c-0.6,0-1.1,0.2-1.6,0.5C9.1,0.9,8.7,1.3,8.5,1.8L7.1,5.3H0.7c-0.2,0-0.4,0.1-0.5,0.2C0.1,5.6,0,5.8,0,6v1.3
			c0,0.2,0.1,0.4,0.2,0.5C0.3,7.9,0.5,8,0.7,8h2v19.7c0,1.1,0.3,2.1,1,2.9c0.6,0.8,1.4,1.2,2.3,1.2h17.2c0.9,0,1.7-0.4,2.3-1.3
			c0.6-0.8,1-1.8,1-3V8h2c0.2,0,0.4-0.1,0.5-0.2c0.1-0.1,0.2-0.3,0.2-0.5V6C29.2,5.8,29.1,5.6,29,5.5z M11,2.9
			c0.1-0.1,0.2-0.2,0.4-0.2h6.6c0.1,0,0.3,0.1,0.4,0.2l1,2.4H10L11,2.9z M23.9,27.6c0,0.3,0,0.6-0.1,0.8c-0.1,0.3-0.2,0.4-0.3,0.6
			c-0.1,0.1-0.2,0.2-0.2,0.2H6c0,0-0.1-0.1-0.2-0.2c-0.1-0.1-0.2-0.3-0.3-0.6c-0.1-0.3-0.1-0.5-0.1-0.8V8h18.6L23.9,27.6L23.9,27.6z
			"/>
		<path class="st0" d="M8.6,25.2H10c0.2,0,0.4-0.1,0.5-0.2c0.1-0.1,0.2-0.3,0.2-0.5V12.6c0-0.2-0.1-0.4-0.2-0.5
			c-0.1-0.1-0.3-0.2-0.5-0.2H8.6c-0.2,0-0.4,0.1-0.5,0.2C8,12.3,8,12.4,8,12.6v11.9C8,24.7,8,24.9,8.1,25
			C8.3,25.1,8.4,25.2,8.6,25.2z"/>
		<path class="st0" d="M13.9,25.2h1.3c0.2,0,0.4-0.1,0.5-0.2c0.1-0.1,0.2-0.3,0.2-0.5V12.6c0-0.2-0.1-0.4-0.2-0.5
			c-0.1-0.1-0.3-0.2-0.5-0.2h-1.3c-0.2,0-0.4,0.1-0.5,0.2c-0.1,0.1-0.2,0.3-0.2,0.5v11.9c0,0.2,0.1,0.4,0.2,0.5
			C13.6,25.1,13.7,25.2,13.9,25.2z"/>
		<path class="st0" d="M19.2,25.2h1.3c0.2,0,0.4-0.1,0.5-0.2c0.1-0.1,0.2-0.3,0.2-0.5V12.6c0-0.2-0.1-0.4-0.2-0.5
			c-0.1-0.1-0.3-0.2-0.5-0.2h-1.3c-0.2,0-0.4,0.1-0.5,0.2c-0.1,0.1-0.2,0.3-0.2,0.5v11.9c0,0.2,0.1,0.4,0.2,0.5
			C18.9,25.1,19,25.2,19.2,25.2z"/>
	</g>
</g>
</svg>
