<?xml version="1.0" encoding="utf-8"?>
<!-- Generator: Adobe Illustrator 23.0.3, SVG Export Plug-In . SVG Version: 6.00 Build 0)  -->
<svg version="1.1" id="Layer_1" xmlns="http://www.w3.org/2000/svg" xmlns:xlink="http://www.w3.org/1999/xlink" x="0px" y="0px"
	 viewBox="0 0 24.2 17.3" style="enable-background:new 0 0 24.2 17.3;" xml:space="preserve">
<style type="text/css">
	.st0{fill:#4A3255;}
	.st1{fill:url(#SVGID_1_);}
</style>
<g>
	<g id="backspace_4_">
		<path class="st0" d="M22.2,0H7C6.3,0,5.8,0.3,5.4,0.9L0.1,8.4C0,8.6,0,8.8,0.1,9l5.3,7.5c0,0,0,0,0,0C5.8,17,6.3,17.3,7,17.3h15.2
			c1.1,0,2-0.9,2-1.9V1.9C24.2,0.9,23.3,0,22.2,0z"/>
	</g>
</g>
<g>
	<linearGradient id="SVGID_1_" gradientUnits="userSpaceOnUse" x1="8.3296" y1="-4.375" x2="19.9593" y2="16.1435">
		<stop  offset="0" style="stop-color:#E5B942"/>
		<stop  offset="0.2361" style="stop-color:#D09D2A"/>
		<stop  offset="0.4553" style="stop-color:#BA8011"/>
		<stop  offset="0.6805" style="stop-color:#D6B371"/>
		<stop  offset="1" style="stop-color:#FFFFFF"/>
	</linearGradient>
	<path class="st1" d="M17.4,8.7l2.9-2.9c0.5-0.5,0.5-1.2,0-1.7c-0.5-0.5-1.2-0.5-1.7,0L15.7,7l-2.9-2.9c-0.5-0.5-1.2-0.5-1.7,0
		c-0.5,0.5-0.5,1.2,0,1.7l2.9,2.9l-2.9,2.9c-0.5,0.5-0.5,1.2,0,1.7c0.2,0.2,0.5,0.3,0.8,0.3c0.3,0,0.6-0.1,0.8-0.3l2.9-2.9l2.9,2.9
		c0.2,0.2,0.5,0.3,0.8,0.3s0.6-0.1,0.8-0.3c0.5-0.5,0.5-1.2,0-1.7L17.4,8.7z"/>
</g>
</svg>
