<?xml version="1.0" encoding="utf-8"?>
<!-- Generator: Adobe Illustrator 23.0.3, SVG Export Plug-In . SVG Version: 6.00 Build 0)  -->
<svg version="1.1" id="Isolation_Mode" xmlns="http://www.w3.org/2000/svg" xmlns:xlink="http://www.w3.org/1999/xlink" x="0px"
	 y="0px" viewBox="0 0 19.1 18.6" style="enable-background:new 0 0 19.1 18.6;" xml:space="preserve">
<style type="text/css">
	.st0{fill:#E2B300;}
	.st1{fill:url(#SVGID_1_);}
	.st2{fill:url(#SVGID_2_);}
</style>
<g>
	<g>
		<path class="st0" d="M10.3,1.6c-4.2,0-7.8,3.5-7.8,7.7H0.1l3.3,3.3l0.1,0.1l3.4-3.4H4.5c0-3.3,2.5-5.9,5.8-5.9S16,6,16,9.3
			s-2.4,5.9-5.7,5.9c-1.6,0-3-0.6-4.1-1.7l-1.4,1.3c1.4,1.4,3.3,2.2,5.4,2.2c4.2,0,7.6-3.4,7.6-7.6S14.5,1.6,10.3,1.6z"/>
	</g>
</g>
<g>
	<linearGradient id="SVGID_1_" gradientUnits="userSpaceOnUse" x1="9.013" y1="16.9808" x2="9.013" y2="1.6074">
		<stop  offset="0.3121" style="stop-color:#9A6A3A"/>
		<stop  offset="0.6662" style="stop-color:#DFB000"/>
		<stop  offset="0.9949" style="stop-color:#FFFFFF"/>
	</linearGradient>
	<path class="st1" d="M5.9,10.4l1-1H4.5c0-3.3,2.5-5.9,5.8-5.9S16,6,16,9.3c0,0.4,0,0.7-0.1,1.1h1.9c0-0.3,0.1-0.7,0.1-1
		c0-4.2-3.4-7.7-7.6-7.7S2.5,5.1,2.5,9.4H0.1l1,1H5.9z"/>
</g>
<g>
	<linearGradient id="SVGID_2_" gradientUnits="userSpaceOnUse" x1="10.4646" y1="9.1431" x2="10.5013" y2="5.8109">
		<stop  offset="0" style="stop-color:#9A6A3A"/>
		<stop  offset="0.6662" style="stop-color:#DFB000"/>
		<stop  offset="0.9949" style="stop-color:#FFFFFF"/>
	</linearGradient>
	<path class="st2" d="M10.5,9.1c0.7,0,1.4-0.7,1.4-1.6c0-0.9-0.2-1.6-1.4-1.6S9.1,6.6,9.1,7.5C9.1,8.4,9.7,9.1,10.5,9.1z"/>
	<path class="st0" d="M13,11.6c0-1.6-0.2-2-1.8-2.3c0,0-0.2,0.3-0.7,0.3c-0.5,0-0.7-0.3-0.7-0.3C8.2,9.5,8,10,7.9,11.5
		c0,0.1,0,0.1,0,0.1c0,0,0,0.1,0,0.2c0,0,0.4,0.8,2.6,0.8c2.2,0,2.6-0.8,2.6-0.8c0-0.1,0-0.1,0-0.1C13,11.7,13,11.7,13,11.6z"/>
</g>
</svg>
