<?xml version="1.0" encoding="utf-8"?>
<!-- Generator: Adobe Illustrator 23.0.3, SVG Export Plug-In . SVG Version: 6.00 Build 0)  -->
<svg version="1.1" id="Layer_2" xmlns="http://www.w3.org/2000/svg" xmlns:xlink="http://www.w3.org/1999/xlink" x="0px" y="0px"
	 viewBox="0 0 26.5 22.7" style="enable-background:new 0 0 26.5 22.7;" xml:space="preserve">
<style type="text/css">
	.st0{fill:#FFFFFF;}
</style>
<path class="st0" d="M4.2,9.1L0,13.4l1.6,1.7L3,13.8c0,0,0.8,3.1,2.3,5.2c0.2,0.3,2.7,3.4,7.5,3.8c3.2,0,5.9-0.9,8.1-3.1
	c0.1-0.1,0.1-0.2,0.2-0.2c2.3-2.9,2.3-4.1,2.4-4.6l-1.2,0.8l-1.1-0.8c0,0-0.4,3.6-5.2,5.3c-0.1,0-0.2,0.1-0.2,0.1
	c-1.5,0.4-3,0.6-5.1-0.2c-0.1,0-0.2-0.1-0.2-0.1c-1.9-0.8-3.4-2.2-4.2-3.7c-0.2-0.4-0.8-2.4-0.8-2.4l1.4,1.4l1.8-1.8L4.2,9.1z"/>
<path class="st0" d="M22.2,13.7l4.2-4.3l-1.6-1.7l-1.4,1.3c0,0-0.8-3.1-2.3-5.2c-0.2-0.3-2.7-3.4-7.5-3.8c-3.2,0-5.9,0.9-8.1,3.1
	C5.5,3.2,5.4,3.3,5.4,3.4C3.1,6.2,3,7.5,3,8l1.2-0.8L5.3,8c0,0,0.4-3.6,5.2-5.3c0.1,0,0.2-0.1,0.2-0.1c1.5-0.4,3-0.6,5.1,0.2
	c0.1,0,0.2,0.1,0.2,0.1C18,3.7,19.5,5,20.3,6.6C20.5,7,21.1,9,21.1,9l-1.4-1.4l-1.8,1.8L22.2,13.7z"/>
</svg>
