<?xml version="1.0" encoding="utf-8"?>
<!-- Generator: Adobe Illustrator 23.0.3, SVG Export Plug-In . SVG Version: 6.00 Build 0)  -->
<svg version="1.1" id="Layer_1" xmlns="http://www.w3.org/2000/svg" xmlns:xlink="http://www.w3.org/1999/xlink" x="0px" y="0px"
	 viewBox="0 0 20.6 65.2" style="enable-background:new 0 0 20.6 65.2;" xml:space="preserve">
<title>star</title>
<linearGradient id="SVGID_1_" gradientUnits="userSpaceOnUse" x1="434.3938" y1="-559.8079" x2="448.1238" y2="-430.7579" gradientTransform="matrix(0.8371 -0.1839 -0.2157 -0.9466 -470.0221 -388.3802)">
	<stop  offset="0.1" style="stop-color:#FFFFFF;stop-opacity:0"/>
	<stop  offset="0.21" style="stop-color:#FDFCFC;stop-opacity:3.000000e-02"/>
	<stop  offset="0.35" style="stop-color:#F5F3F4;stop-opacity:0.12"/>
	<stop  offset="0.51" style="stop-color:#EAE5E7;stop-opacity:0.28"/>
	<stop  offset="0.68" style="stop-color:#D9D2D4;stop-opacity:0.49"/>
	<stop  offset="0.86" style="stop-color:#C5B9BD;stop-opacity:0.76"/>
	<stop  offset="1" style="stop-color:#B2A2A8"/>
</linearGradient>
<polygon style="fill:url(#SVGID_1_);" points="8.8,9.9 8.2,62.5 13.8,9.8 "/>
<linearGradient id="SVGID_2_" gradientUnits="userSpaceOnUse" x1="435.652" y1="-559.3167" x2="448.542" y2="-438.2167" gradientTransform="matrix(0.8371 -0.1839 -0.2157 -0.9466 -470.0221 -388.3802)">
	<stop  offset="0.1" style="stop-color:#FFFFFF;stop-opacity:0"/>
	<stop  offset="0.21" style="stop-color:#FDFCFC;stop-opacity:3.000000e-02"/>
	<stop  offset="0.35" style="stop-color:#F5F3F4;stop-opacity:0.12"/>
	<stop  offset="0.51" style="stop-color:#EAE5E7;stop-opacity:0.28"/>
	<stop  offset="0.68" style="stop-color:#D9D2D4;stop-opacity:0.49"/>
	<stop  offset="0.86" style="stop-color:#C5B9BD;stop-opacity:0.76"/>
	<stop  offset="1" style="stop-color:#B2A2A8"/>
</linearGradient>
<polygon style="fill:url(#SVGID_2_);" points="9.2,12.2 7.1,61.7 17.3,13.2 "/>
<linearGradient id="SVGID_3_" gradientUnits="userSpaceOnUse" x1="432.9317" y1="-559.5685" x2="446.9017" y2="-428.3286" gradientTransform="matrix(0.8371 -0.1839 -0.2157 -0.9466 -470.0221 -388.3802)">
	<stop  offset="0.1" style="stop-color:#FFFFFF;stop-opacity:0"/>
	<stop  offset="0.21" style="stop-color:#FDFCFC;stop-opacity:3.000000e-02"/>
	<stop  offset="0.35" style="stop-color:#F5F3F4;stop-opacity:0.12"/>
	<stop  offset="0.51" style="stop-color:#EAE5E7;stop-opacity:0.28"/>
	<stop  offset="0.68" style="stop-color:#D9D2D4;stop-opacity:0.49"/>
	<stop  offset="0.86" style="stop-color:#C5B9BD;stop-opacity:0.76"/>
	<stop  offset="1" style="stop-color:#B2A2A8"/>
</linearGradient>
<polygon style="fill:url(#SVGID_3_);" points="6.1,9.3 8.2,62.5 11.1,9.2 "/>
<linearGradient id="SVGID_4_" gradientUnits="userSpaceOnUse" x1="430.9047" y1="-562.0689" x2="445.4147" y2="-425.739" gradientTransform="matrix(0.8371 -0.1839 -0.2157 -0.9466 -470.0221 -388.3802)">
	<stop  offset="0.1" style="stop-color:#FFFFFF;stop-opacity:0"/>
	<stop  offset="0.21" style="stop-color:#FDFCFC;stop-opacity:3.000000e-02"/>
	<stop  offset="0.35" style="stop-color:#F5F3F4;stop-opacity:0.12"/>
	<stop  offset="0.51" style="stop-color:#EAE5E7;stop-opacity:0.28"/>
	<stop  offset="0.68" style="stop-color:#D9D2D4;stop-opacity:0.49"/>
	<stop  offset="0.86" style="stop-color:#C5B9BD;stop-opacity:0.76"/>
	<stop  offset="1" style="stop-color:#B2A2A8"/>
</linearGradient>
<polygon style="fill:url(#SVGID_4_);" points="2.4,10.4 9.4,65.2 7.4,10.3 "/>
<polygon style="fill:#F9D643;" points="7,6.1 7.5,2.2 11.7,4.9 16.9,4.2 17.1,4.2 15,7.7 17.6,10.8 17.9,11.2 12.3,10.6 8.7,13.4 
	7.5,9.6 2.3,7.9 2.6,7.7 "/>
<polygon style="fill:#691870;" points="8.1,6.6 8.4,4 11.2,5.8 14.9,5.4 13.4,7.7 15.4,10 11.6,9.7 9.2,11.6 8.4,9 4.9,7.9 "/>
<polygon style="fill:#D6B321;" points="7.3,12.2 7.5,9.6 2.3,7.9 2.5,10.7 "/>
<polygon style="fill:#D6B321;" points="8.5,16.1 8.7,13.4 7.5,9.6 7.3,12.2 "/>
<polygon style="fill:#D6B321;" points="12.1,13.2 12.3,10.6 8.7,13.4 8.5,16.1 "/>
<line style="fill:none;" x1="12.1" y1="13.2" x2="12.3" y2="10.6"/>
<polygon style="fill:#C1991A;" points="17.9,11.2 12.3,10.6 12.1,13.2 17.2,13.8 "/>
<polygon style="fill:#C1991A;" points="17.1,4.2 16.9,6.8 15.8,8.7 15,7.7 "/>
<linearGradient id="SVGID_5_" gradientUnits="userSpaceOnUse" x1="-30.6253" y1="-583.4931" x2="-28.7553" y2="-590.9731" gradientTransform="matrix(0.9432 -0.3321 -0.3321 -0.9432 -158.2566 -556.8203)">
	<stop  offset="4.000000e-02" style="stop-color:#FFFFFF;stop-opacity:0"/>
	<stop  offset="0.16" style="stop-color:#FDFCFC;stop-opacity:3.000000e-02"/>
	<stop  offset="0.31" style="stop-color:#F5F3F4;stop-opacity:0.12"/>
	<stop  offset="0.47" style="stop-color:#EAE5E7;stop-opacity:0.28"/>
	<stop  offset="0.66" style="stop-color:#D9D2D4;stop-opacity:0.49"/>
	<stop  offset="0.85" style="stop-color:#C5B9BD;stop-opacity:0.76"/>
	<stop  offset="1" style="stop-color:#B2A2A8"/>
</linearGradient>
<path style="fill:url(#SVGID_5_);" d="M8.4,9L4.9,7.9l3.2-1.2L8.4,4l2.8,1.8l1.1-0.1c0.1,0,0.1,0,0.1,0.1c0,0,0,0,0,0.1l-3.1,5.6
	c0,0-0.1,0-0.1,0c0,0,0,0,0,0L8.4,9z"/>
<polygon style="fill:#CCAB23;" points="17.9,11.2 12.3,10.6 12.3,10.2 17.6,10.8 "/>
<polygon style="opacity:0.83;fill:#FFE783;enable-background:new    ;" points="8.7,13.4 8.8,13 12.3,10.2 12.3,10.6 "/>
<polygon style="fill:#C9A923;" points="8.8,13 7.6,9.2 7.5,9.6 8.7,13.4 "/>
<polygon style="opacity:0.83;fill:#FFE783;enable-background:new    ;" points="7.6,9.2 2.6,7.7 2.3,7.9 7.5,9.6 "/>
<polygon style="fill:#FFE783;" points="14.8,7.5 16.9,4.2 17.1,4.3 15,7.7 "/>
<path style="fill:#C9A923;" d="M15,7.6"/>
</svg>
