<?xml version="1.0" encoding="utf-8"?>
<!-- Generator: Adobe Illustrator 23.0.3, SVG Export Plug-In . SVG Version: 6.00 Build 0)  -->
<svg version="1.1" id="Isolation_Mode" xmlns="http://www.w3.org/2000/svg" xmlns:xlink="http://www.w3.org/1999/xlink" x="0px"
	 y="0px" viewBox="0 0 27.2 19" style="enable-background:new 0 0 27.2 19;" xml:space="preserve">
<style type="text/css">
	.st0{fill:#E2B300;}
	.st1{fill:url(#SVGID_1_);}
	.st2{fill:url(#SVGID_2_);}
	.st3{fill:url(#SVGID_3_);}
	.st4{fill:url(#SVGID_4_);}
</style>
<g>
	<g>
		<rect x="22.6" y="2" class="st0" width="2.5" height="15"/>
	</g>
	<g>
		<rect x="15.8" y="8" class="st0" width="2.5" height="8.9"/>
	</g>
	<g>
		<rect x="8.9" y="5.5" class="st0" width="2.5" height="11.4"/>
	</g>
	<g>
		<rect x="2" y="12" class="st0" width="2.5" height="5"/>
	</g>
</g>
<g>
	<g>
		<linearGradient id="SVGID_1_" gradientUnits="userSpaceOnUse" x1="23.8789" y1="13.8981" x2="23.8789" y2="2.0065">
			<stop  offset="0.3121" style="stop-color:#9A6A3A"/>
			<stop  offset="0.6662" style="stop-color:#DFB000"/>
			<stop  offset="0.9949" style="stop-color:#FFFFFF"/>
		</linearGradient>
		<path class="st1" d="M23.7,13.4C23.7,13.4,23.7,13.4,23.7,13.4c0.5,0.2,1,0.3,1.5,0.5V2h-2.5v11.1C23,13.2,23.3,13.3,23.7,13.4z"
			/>
	</g>
	<g>
		<linearGradient id="SVGID_2_" gradientUnits="userSpaceOnUse" x1="17.0185" y1="12.1984" x2="17.0185" y2="8.0386">
			<stop  offset="0.3121" style="stop-color:#9A6A3A"/>
			<stop  offset="0.6662" style="stop-color:#DFB000"/>
			<stop  offset="0.9949" style="stop-color:#FFFFFF"/>
		</linearGradient>
		<path class="st2" d="M18.3,12.2V8h-2.5V12C16.6,12,17.4,12.1,18.3,12.2z"/>
	</g>
	<g>
		<linearGradient id="SVGID_3_" gradientUnits="userSpaceOnUse" x1="10.158" y1="12.5607" x2="10.158" y2="5.5313">
			<stop  offset="0.3121" style="stop-color:#9A6A3A"/>
			<stop  offset="0.6662" style="stop-color:#DFB000"/>
			<stop  offset="0.9949" style="stop-color:#FFFFFF"/>
		</linearGradient>
		<path class="st3" d="M11.4,12.2V5.5H8.9v7C9.7,12.4,10.6,12.3,11.4,12.2z"/>
	</g>
	<g>
		<linearGradient id="SVGID_4_" gradientUnits="userSpaceOnUse" x1="3.2975" y1="14.572" x2="3.2975" y2="11.9502">
			<stop  offset="0.3121" style="stop-color:#9A6A3A"/>
			<stop  offset="0.6662" style="stop-color:#DFB000"/>
			<stop  offset="0.9949" style="stop-color:#FFFFFF"/>
		</linearGradient>
		<path class="st4" d="M4.6,13.6V12H2v2.6C2.9,14.2,3.7,13.9,4.6,13.6z"/>
	</g>
</g>
</svg>
