<?xml version="1.0" encoding="utf-8"?>
<!-- Generator: Adobe Illustrator 23.0.3, SVG Export Plug-In . SVG Version: 6.00 Build 0)  -->
<svg version="1.1" id="Isolation_Mode" xmlns="http://www.w3.org/2000/svg" xmlns:xlink="http://www.w3.org/1999/xlink" x="0px"
	 y="0px" viewBox="0 0 20.4 19" style="enable-background:new 0 0 20.4 19;" xml:space="preserve">
<style type="text/css">
	.st0{fill:#E2B300;}
	.st1{fill:url(#SVGID_1_);}
	.st2{fill:url(#SVGID_2_);}
</style>
<g>
	<g>
		<path class="st0" d="M11.2,1.3C6.8,1.3,3.1,5,3.1,9.3H0.6L4,12.8l0.1,0.1l3.6-3.6H5.1c0-3.4,2.6-6.2,6.1-6.2s6,2.7,6,6.1
			s-2.5,6.1-5.9,6.1c-1.7,0-3.1-0.7-4.2-1.8L5.6,15c1.4,1.4,3.4,2.3,5.6,2.3c4.4,0,7.9-3.6,7.9-7.9S15.6,1.3,11.2,1.3z M10.3,5.8
			v4.4l3.7,2.3l0.8-1.2l-3-1.8l0-3.7H10.3z"/>
	</g>
</g>
<g>
	<linearGradient id="SVGID_1_" gradientUnits="userSpaceOnUse" x1="9.8739" y1="17.2835" x2="9.8739" y2="1.2703">
		<stop  offset="0.3121" style="stop-color:#9A6A3A"/>
		<stop  offset="0.6662" style="stop-color:#DFB000"/>
		<stop  offset="0.9949" style="stop-color:#FFFFFF"/>
	</linearGradient>
	<path class="st1" d="M6.6,10.4l1-1H5.1c0-3.4,2.6-6.2,6.1-6.2s6,2.7,6,6.1c0,0.4,0,0.7-0.1,1.1h2c0-0.3,0.1-0.7,0.1-1
		c0-4.4-3.6-8.1-7.9-8.1S3.1,5,3.1,9.3H0.6l1,1H6.6z"/>
</g>
<g>
	<linearGradient id="SVGID_2_" gradientUnits="userSpaceOnUse" x1="11.7707" y1="17.2835" x2="11.7707" y2="1.2703">
		<stop  offset="0" style="stop-color:#9A6A3A"/>
		<stop  offset="0.6662" style="stop-color:#DFB000"/>
		<stop  offset="0.9949" style="stop-color:#FFFFFF"/>
	</linearGradient>
	<polygon class="st2" points="11.8,9.5 11.8,5.8 10.3,5.8 10.3,10.2 10.6,10.4 13.2,10.4 	"/>
</g>
</svg>
