<svg xmlns="http://www.w3.org/2000/svg" xmlns:xlink="http://www.w3.org/1999/xlink" viewBox="0 0 34.17 37.27"><defs><linearGradient id="a" x1="31.5" y1="51.09" x2="9.2" y2="-2.41" gradientUnits="userSpaceOnUse"><stop offset="0" stop-color="#e5b942"/><stop offset="0.24" stop-color="#d09d2a"/><stop offset="0.46" stop-color="#ba8011"/><stop offset="0.68" stop-color="#d6b371"/><stop offset="1" stop-color="#fff"/></linearGradient><linearGradient id="b" x1="24.35" y1="54.07" x2="2.05" y2="0.57" xlink:href="#a"/><linearGradient id="c" x1="29.64" y1="51.87" x2="7.34" y2="-1.63" xlink:href="#a"/><linearGradient id="d" x1="34.93" y1="49.66" x2="12.63" y2="-3.84" xlink:href="#a"/></defs><title>basket</title><path d="M34,6.43a.77.77,0,0,0-.56-.22h-7.5l-1.69-4A3.37,3.37,0,0,0,22.88.63,3.42,3.42,0,0,0,21,0H13.2a3.45,3.45,0,0,0-1.92.63A3.4,3.4,0,0,0,10,2.16L8.28,6.21H.78a.77.77,0,0,0-.56.22A.75.75,0,0,0,0,7V8.54a.75.75,0,0,0,.22.56.73.73,0,0,0,.56.22H3.11v23.1a5.34,5.34,0,0,0,1.14,3.44A3.42,3.42,0,0,0,7,37.27H27.18a3.36,3.36,0,0,0,2.74-1.46,5.52,5.52,0,0,0,1.14-3.49v-23h2.33A.73.73,0,0,0,34,9.1a.75.75,0,0,0,.22-.56V7A.75.75,0,0,0,34,6.43ZM12.84,3.37a.68.68,0,0,1,.41-.26h7.69a.73.73,0,0,1,.42.26l1.16,2.84H11.65ZM28,32.32a2.86,2.86,0,0,1-.17,1,2.11,2.11,0,0,1-.36.65c-.12.14-.2.21-.25.21H7s-.13-.07-.26-.21a2.36,2.36,0,0,1-.35-.65,2.86,2.86,0,0,1-.17-1v-23H28v23Z" fill="url(#a)"/><path d="M10.1,29.51h1.55a.75.75,0,0,0,.56-.22.77.77,0,0,0,.22-.56v-14a.76.76,0,0,0-.22-.55.75.75,0,0,0-.56-.22H10.1a.73.73,0,0,0-.56.22.72.72,0,0,0-.22.55v14a.75.75,0,0,0,.78.78Z" fill="url(#b)"/><path d="M16.31,29.51h1.55a.75.75,0,0,0,.56-.22.73.73,0,0,0,.22-.56v-14a.76.76,0,0,0-.22-.55.75.75,0,0,0-.56-.22H16.31a.75.75,0,0,0-.56.22.72.72,0,0,0-.22.55v14a.73.73,0,0,0,.22.56A.75.75,0,0,0,16.31,29.51Z" fill="url(#c)"/><path d="M22.52,29.51h1.55a.75.75,0,0,0,.78-.78v-14a.72.72,0,0,0-.22-.55.73.73,0,0,0-.56-.22H22.52a.75.75,0,0,0-.56.22.76.76,0,0,0-.22.55v14a.77.77,0,0,0,.22.56A.75.75,0,0,0,22.52,29.51Z" fill="url(#d)"/></svg>