<?xml version="1.0" encoding="utf-8"?>
<!-- Generator: Adobe Illustrator 24.1.0, SVG Export Plug-In . SVG Version: 6.00 Build 0)  -->
<svg version="1.1" id="Capa_1" xmlns="http://www.w3.org/2000/svg" xmlns:xlink="http://www.w3.org/1999/xlink" x="0px" y="0px"
	 viewBox="0 0 40 40" style="enable-background:new 0 0 40 40;" xml:space="preserve">
<style type="text/css">
	.st0{fill:#B0A2BE;}
</style>
<path class="st0" d="M25.6,15.5H39c0.5,0,1-0.4,1-1v-1.9c0-0.6-0.4-1-1-1h-7.7l8.3-8.5c0.4-0.4,0.4-1,0-1.4l-1.3-1.3
	C38.1,0.1,37.8,0,37.6,0c-0.3,0-0.5,0.1-0.7,0.3l-8.3,8.5V1c0-0.6-0.4-1-1-1h-1.9c-0.5,0-1,0.4-1,1v13.5
	C24.6,15.1,25.1,15.5,25.6,15.5z"/>
<path class="st0" d="M15.5,14.4V1.1c0-0.5-0.4-1-1-1h-1.9c-0.6,0-1,0.4-1,1v7.7L3.1,0.5c-0.4-0.4-1-0.4-1.4,0L0.3,1.8
	C0.1,2,0,2.3,0,2.5C0,2.8,0.1,3,0.3,3.2l8.5,8.3H1c-0.6,0-1,0.4-1,1v1.9c0,0.5,0.4,1,1,1h13.5C15.1,15.4,15.5,15,15.5,14.4z"/>
<path class="st0" d="M14.4,24.5H1c-0.5,0-1,0.4-1,1v1.9c0,0.6,0.4,1,1,1h7.7l-8.3,8.5c-0.4,0.4-0.4,1,0,1.4l1.3,1.3
	C1.9,39.9,2.2,40,2.4,40c0.3,0,0.5-0.1,0.7-0.3l8.3-8.5V39c0,0.6,0.4,1,1,1h1.9c0.5,0,1-0.4,1-1V25.5C15.4,24.9,14.9,24.5,14.4,24.5
	z"/>
<path class="st0" d="M24.5,25.6V39c0,0.5,0.4,1,1,1h1.9c0.6,0,1-0.4,1-1v-7.7l8.5,8.3c0.4,0.4,1,0.4,1.4,0l1.3-1.3
	c0.2-0.2,0.3-0.4,0.3-0.7c0-0.3-0.1-0.5-0.3-0.7l-8.5-8.3H39c0.6,0,1-0.4,1-1v-1.9c0-0.5-0.4-1-1-1H25.5
	C24.9,24.6,24.5,25.1,24.5,25.6z"/>
</svg>
