<?xml version="1.0" encoding="utf-8"?>
<!-- Generator: Adobe Illustrator 24.1.0, SVG Export Plug-In . SVG Version: 6.00 Build 0)  -->
<svg version="1.1" id="Capa_1" xmlns="http://www.w3.org/2000/svg" xmlns:xlink="http://www.w3.org/1999/xlink" x="0px" y="0px"
	 viewBox="0 0 40 40" style="enable-background:new 0 0 40 40;" xml:space="preserve">
<style type="text/css">
	.st0{fill:#B0A2BE;}
</style>
<g>
	<g>
		<path class="st0" d="M39,0H25.6c-0.5,0-1,0.4-1,1v1.9c0,0.6,0.4,1,1,1h7.7L22.3,15.1c-0.4,0.4-0.4,1,0,1.4l1.3,1.3
			c0.2,0.2,0.4,0.3,0.7,0.3c0.3,0,0.5-0.1,0.7-0.3L36.1,6.7v7.8c0,0.6,0.4,1,1,1H39c0.5,0,1-0.4,1-1V1C40,0.4,39.6,0,39,0z"/>
		<path class="st0" d="M6.6,3.9h7.7c0.5,0,1-0.4,1-1V1c0-0.6-0.4-1-1-1H1C0.4,0,0,0.4,0,1v13.5c0,0.6,0.4,1,1,1h1.9c0.5,0,1-0.4,1-1
			V6.7l11.1,11.2c0.2,0.2,0.4,0.3,0.7,0.3s0.5-0.1,0.7-0.3l1.3-1.3c0.4-0.4,0.4-1,0-1.4L6.6,3.9z"/>
		<path class="st0" d="M39,24.5h-1.9c-0.5,0-1,0.4-1,1v7.8L25.1,22.2c-0.4-0.4-1-0.4-1.4,0l-1.3,1.3c-0.4,0.4-0.4,1,0,1.4l11.1,11.2
			h-7.7c-0.5,0-1,0.4-1,1V39c0,0.6,0.4,1,1,1H39c0.5,0,1-0.4,1-1V25.5C40,24.9,39.6,24.5,39,24.5z"/>
		<path class="st0" d="M16.3,22.2c-0.4-0.4-1-0.4-1.4,0L3.9,33.3v-7.8c0-0.6-0.4-1-1-1H1c-0.5,0-1,0.4-1,1V39c0,0.6,0.4,1,1,1h13.4
			c0.5,0,1-0.4,1-1v-1.9c0-0.6-0.4-1-1-1H6.6l11.1-11.2c0.4-0.4,0.4-1,0-1.4L16.3,22.2z"/>
	</g>
</g>
</svg>
