<?xml version="1.0" encoding="utf-8"?>
<!-- Generator: Adobe Illustrator 24.1.0, SVG Export Plug-In . SVG Version: 6.00 Build 0)  -->
<svg version="1.1" id="Capa_1" xmlns="http://www.w3.org/2000/svg" xmlns:xlink="http://www.w3.org/1999/xlink" x="0px" y="0px"
	 viewBox="0 0 40 40" style="enable-background:new 0 0 40 40;" xml:space="preserve">
<style type="text/css">
	.st0{fill:#B0A2BE;}
</style>
<path class="st0" d="M38.9,17.4C38.9,17.4,38.9,17.4,38.9,17.4L22.6,1.1C21.9,0.4,21,0,20,0c-1,0-1.9,0.4-2.6,1.1L1.1,17.4
	c0,0,0,0,0,0c-1.4,1.4-1.4,3.8,0,5.2c0.7,0.7,1.5,1,2.4,1.1c0,0,0.1,0,0.1,0h0.7v12c0,2.4,1.9,4.3,4.3,4.3H15c0.6,0,1.2-0.5,1.2-1.2
	v-9.4c0-1.1,0.9-2,2-2h3.8c1.1,0,2,0.9,2,2v9.4c0,0.6,0.5,1.2,1.2,1.2h6.4c2.4,0,4.3-1.9,4.3-4.3v-12h0.6c1,0,1.9-0.4,2.6-1.1
	C40.4,21.2,40.4,18.8,38.9,17.4z"/>
</svg>
