<?xml version="1.0" encoding="utf-8"?>
<!-- Generator: Adobe Illustrator 23.0.3, SVG Export Plug-In . SVG Version: 6.00 Build 0)  -->
<svg version="1.1" id="Isolation_Mode" xmlns="http://www.w3.org/2000/svg" xmlns:xlink="http://www.w3.org/1999/xlink" x="0px"
	 y="0px" viewBox="0 0 66.7 44.2" style="enable-background:new 0 0 66.7 44.2;" xml:space="preserve">
<style type="text/css">
	.st0{fill:#B6A2C0;}
</style>
<g>
	<g>
		<path class="st0" d="M60.7,7.8C51.9-6.7,38.7,3.4,38.7,3.4c-0.9,0.7-2.4,1.2-3.5,1.2l-3.6,0c-1.1,0-2.7-0.5-3.5-1.2
			c0,0-13.3-10.1-22.1,4.4c-8.8,14.5-5.3,30.2-5.3,30.2c0.6,3.9,2.7,6.4,6.5,6.1c3.9-0.3,12.2-10.4,12.2-10.4
			c0.7-0.8,2.1-1.5,3.2-1.5l21.3,0c1.1,0,2.5,0.7,3.2,1.5c0,0,8.4,10.1,12.2,10.4c3.9,0.3,5.9-2.3,6.5-6.1C66,38,69.6,22.3,60.7,7.8
			z M25.3,19.6h-4.6V24c0,0-1,0.7-2.5,0.7c-1.5,0-2.2-0.8-2.2-0.8v-4.3h-4.3c0,0-0.5-0.6-0.7-2C11,16.1,11.7,15,11.7,15h4.6v-4.6
			c0,0,0.9-0.5,2.3-0.5c1.4,0,2.3,0.6,2.3,0.6l0,4.5h4.3c0,0,0.8,1,0.8,2.1C26.1,18.3,25.3,19.6,25.3,19.6z M46.3,24.6
			c-2,0-3.6-1.6-3.6-3.6c0-2,1.6-3.6,3.6-3.6c2,0,3.6,1.6,3.6,3.6C49.9,23,48.3,24.6,46.3,24.6z M46.3,14.7c-2,0-3.6-1.6-3.6-3.6
			c0-2,1.6-3.6,3.6-3.6c2,0,3.6,1.6,3.6,3.6C49.9,13,48.3,14.7,46.3,14.7z M55.3,20c-2,0-3.6-1.6-3.6-3.6c0-2,1.6-3.6,3.6-3.6
			c2,0,3.6,1.6,3.6,3.6C58.9,18.4,57.3,20,55.3,20z"/>
	</g>
</g>
</svg>
