<?xml version="1.0" encoding="utf-8"?>
<!-- Generator: Adobe Illustrator 23.0.3, SVG Export Plug-In . SVG Version: 6.00 Build 0)  -->
<svg version="1.1" id="Isolation_Mode" xmlns="http://www.w3.org/2000/svg" xmlns:xlink="http://www.w3.org/1999/xlink" x="0px"
	 y="0px" viewBox="0 0 67.1 43.8" style="enable-background:new 0 0 67.1 43.8;" xml:space="preserve">
<style type="text/css">
	.st0{fill:#E2B300;}
	.st1{fill:url(#SVGID_1_);}
	.st2{fill:url(#SVGID_2_);}
	.st3{fill:url(#SVGID_3_);}
	.st4{fill:url(#SVGID_4_);}
</style>
<g>
	<g>
		<rect x="59.4" y="0.4" class="st0" width="7.3" height="42.9"/>
	</g>
	<g>
		<rect x="39.8" y="17.7" class="st0" width="7.3" height="25.6"/>
	</g>
	<g>
		<rect x="20.1" y="10.5" class="st0" width="7.3" height="32.8"/>
	</g>
	<g>
		<rect x="0.4" y="28.9" class="st0" width="7.3" height="14.4"/>
	</g>
</g>
<g>
	<g>
		<linearGradient id="SVGID_1_" gradientUnits="userSpaceOnUse" x1="63.0687" y1="34.4684" x2="63.0687" y2="0.3628">
			<stop  offset="0.3121" style="stop-color:#9A6A3A"/>
			<stop  offset="0.6662" style="stop-color:#DFB000"/>
			<stop  offset="0.9949" style="stop-color:#FFFFFF"/>
		</linearGradient>
		<path class="st1" d="M62.5,33.1c0.1,0,0.1,0,0.2,0.1c1.3,0.4,2.7,0.9,4,1.4V0.4h-7.3v31.8C60.5,32.4,61.5,32.7,62.5,33.1z"/>
	</g>
	<g>
		<linearGradient id="SVGID_2_" gradientUnits="userSpaceOnUse" x1="43.3925" y1="29.5936" x2="43.3925" y2="17.663">
			<stop  offset="0.3121" style="stop-color:#9A6A3A"/>
			<stop  offset="0.6662" style="stop-color:#DFB000"/>
			<stop  offset="0.9949" style="stop-color:#FFFFFF"/>
		</linearGradient>
		<path class="st2" d="M47,29.6V17.7h-7.3V29C42.2,29.1,44.6,29.3,47,29.6z"/>
	</g>
	<g>
		<linearGradient id="SVGID_3_" gradientUnits="userSpaceOnUse" x1="23.7164" y1="30.6328" x2="23.7164" y2="10.4721">
			<stop  offset="0.3121" style="stop-color:#9A6A3A"/>
			<stop  offset="0.6662" style="stop-color:#DFB000"/>
			<stop  offset="0.9949" style="stop-color:#FFFFFF"/>
		</linearGradient>
		<path class="st3" d="M27.4,29.5V10.5h-7.3v20.2C22.5,30.2,24.9,29.8,27.4,29.5z"/>
	</g>
	<g>
		<linearGradient id="SVGID_4_" gradientUnits="userSpaceOnUse" x1="4.0401" y1="36.4013" x2="4.0401" y2="28.8818">
			<stop  offset="0.3121" style="stop-color:#9A6A3A"/>
			<stop  offset="0.6662" style="stop-color:#DFB000"/>
			<stop  offset="0.9949" style="stop-color:#FFFFFF"/>
		</linearGradient>
		<path class="st4" d="M7.7,33.7v-4.8H0.4v7.5C2.8,35.4,5.2,34.5,7.7,33.7z"/>
	</g>
</g>
</svg>
