<?xml version="1.0" encoding="utf-8"?>
<!-- Generator: Adobe Illustrator 23.0.3, SVG Export Plug-In . SVG Version: 6.00 Build 0)  -->
<svg version="1.1" id="Isolation_Mode" xmlns="http://www.w3.org/2000/svg" xmlns:xlink="http://www.w3.org/1999/xlink" x="0px"
	 y="0px" viewBox="0 0 46 40.5" style="enable-background:new 0 0 46 40.5;" xml:space="preserve">
<style type="text/css">
	.st0{fill:#E2B300;}
	.st1{fill:url(#SVGID_1_);}
	.st2{fill:url(#SVGID_2_);}
</style>
<g>
	<g>
		<path class="st0" d="M26.3,0.8c-10.9,0-20.1,9.1-20.1,20H0l8.5,8.5l0.2,0.3l8.8-8.8h-6.3c0-8.5,6.5-15.3,15-15.3
			s14.8,6.7,14.8,15.2s-6.3,15.1-14.7,15.1c-4.2,0-7.8-1.7-10.5-4.4l-3.5,3.4c3.6,3.6,8.5,5.8,13.9,5.8c10.9,0,19.7-8.8,19.7-19.7
			S37.1,0.8,26.3,0.8z M24.1,12V23l9.2,5.7l1.9-3l-7.4-4.5l0-9.2H24.1z"/>
	</g>
</g>
<g>
	<linearGradient id="SVGID_1_" gradientUnits="userSpaceOnUse" x1="22.9759" y1="40.4623" x2="22.9759" y2="0.7669">
		<stop  offset="0.3121" style="stop-color:#9A6A3A"/>
		<stop  offset="0.6662" style="stop-color:#DFB000"/>
		<stop  offset="0.9949" style="stop-color:#FFFFFF"/>
	</linearGradient>
	<path class="st1" d="M14.9,23.4l2.6-2.6h-6.3c0-8.5,6.5-15.3,15-15.3s14.8,6.7,14.8,15.2c0,0.9-0.1,1.9-0.2,2.7h4.9
		c0.1-0.8,0.2-1.7,0.2-2.6c0-10.9-8.8-20-19.7-20S6.2,9.9,6.2,20.8H0l2.6,2.6H14.9z"/>
</g>
<g>
	<linearGradient id="SVGID_2_" gradientUnits="userSpaceOnUse" x1="27.678" y1="40.4623" x2="27.678" y2="0.7669">
		<stop  offset="0" style="stop-color:#9A6A3A"/>
		<stop  offset="0.6662" style="stop-color:#DFB000"/>
		<stop  offset="0.9949" style="stop-color:#FFFFFF"/>
	</linearGradient>
	<polygon class="st2" points="27.8,21.2 27.7,12 24.1,12 24.1,23 24.7,23.4 31.3,23.4 	"/>
</g>
</svg>
