<?xml version="1.0" encoding="utf-8"?>
<!-- Generator: Adobe Illustrator 23.0.1, SVG Export Plug-In . SVG Version: 6.00 Build 0)  -->
<svg version="1.1" id="Layer_1" xmlns="http://www.w3.org/2000/svg" xmlns:xlink="http://www.w3.org/1999/xlink" x="0px" y="0px"
	 viewBox="0 0 79.6 67" style="enable-background:new 0 0 79.6 67;" xml:space="preserve">
<style type="text/css">
	.st0{fill:url(#SVGID_1_);}
	.st1{fill:url(#SVGID_2_);}
	.st2{fill:url(#SVGID_3_);}
	.st3{fill:url(#SVGID_4_);}
	.st4{fill:url(#SVGID_5_);}
	.st5{fill:url(#SVGID_6_);}
</style>
<g>
	<linearGradient id="SVGID_1_" gradientUnits="userSpaceOnUse" x1="60.3834" y1="80.0721" x2="59.4864" y2="-12.0213">
		<stop  offset="0.3121" style="stop-color:#9A6A3A"/>
		<stop  offset="0.6662" style="stop-color:#DFB000"/>
		<stop  offset="0.9949" style="stop-color:#FFFFFF"/>
	</linearGradient>
	<path class="st0" d="M48,11.5c3.7,2.3,6.3,6.2,6.7,10.7c1.5,0.7,3.2,1.1,4.9,1.1c6.4,0,11.7-5.2,11.7-11.7C71.4,5.2,66.2,0,59.7,0
		C53.3,0,48.1,5.1,48,11.5z"/>
</g>
<g>
	<linearGradient id="SVGID_2_" gradientUnits="userSpaceOnUse" x1="38.4072" y1="110.1529" x2="40.7993" y2="6.0993">
		<stop  offset="0.3121" style="stop-color:#9A6A3A"/>
		<stop  offset="0.6662" style="stop-color:#DFB000"/>
		<stop  offset="0.9949" style="stop-color:#FFFFFF"/>
	</linearGradient>
	<path class="st1" d="M40.4,35.4c6.4,0,11.7-5.2,11.7-11.7s-5.2-11.7-11.7-11.7s-11.7,5.2-11.7,11.7S33.9,35.4,40.4,35.4z"/>
</g>
<g>
	<linearGradient id="SVGID_3_" gradientUnits="userSpaceOnUse" x1="39.173" y1="110.1705" x2="41.5651" y2="6.1169">
		<stop  offset="0.3121" style="stop-color:#9A6A3A"/>
		<stop  offset="0.6662" style="stop-color:#DFB000"/>
		<stop  offset="0.9949" style="stop-color:#FFFFFF"/>
	</linearGradient>
	<path class="st2" d="M45.3,36.2h-9.9c-8.2,0-15,6.7-15,15v12.1l0,0.2l0.8,0.3c7.9,2.5,14.7,3.3,20.3,3.3c11,0,17.4-3.1,17.7-3.3
		l0.8-0.4h0.1V51.2C60.3,42.9,53.6,36.2,45.3,36.2z"/>
</g>
<g>
	<linearGradient id="SVGID_4_" gradientUnits="userSpaceOnUse" x1="65.4274" y1="80.023" x2="64.5303" y2="-12.0704">
		<stop  offset="0.3121" style="stop-color:#9A6A3A"/>
		<stop  offset="0.6662" style="stop-color:#DFB000"/>
		<stop  offset="0.9949" style="stop-color:#FFFFFF"/>
	</linearGradient>
	<path class="st3" d="M64.7,24.1h-9.8c-0.1,3.9-1.8,7.5-4.4,10c7.3,2.2,12.7,9,12.7,17v3.7c9.7-0.4,15.3-3.1,15.7-3.3l0.8-0.4h0.1
		V39.1C79.6,30.9,72.9,24.1,64.7,24.1z"/>
</g>
<g>
	<linearGradient id="SVGID_5_" gradientUnits="userSpaceOnUse" x1="20.125" y1="85.2577" x2="19.826" y2="-14.9088">
		<stop  offset="0.3121" style="stop-color:#9A6A3A"/>
		<stop  offset="0.6662" style="stop-color:#DFB000"/>
		<stop  offset="0.9949" style="stop-color:#FFFFFF"/>
	</linearGradient>
	<path class="st4" d="M19.9,23.4c2.3,0,4.4-0.7,6.2-1.8c0.6-3.7,2.6-7,5.4-9.2c0-0.2,0-0.4,0-0.7C31.6,5.2,26.4,0,19.9,0
		C13.5,0,8.2,5.2,8.2,11.7C8.2,18.1,13.5,23.4,19.9,23.4z"/>
</g>
<g>
	<linearGradient id="SVGID_6_" gradientUnits="userSpaceOnUse" x1="15.3234" y1="85.272" x2="15.0244" y2="-14.8945">
		<stop  offset="0.3121" style="stop-color:#9A6A3A"/>
		<stop  offset="0.6662" style="stop-color:#DFB000"/>
		<stop  offset="0.9949" style="stop-color:#FFFFFF"/>
	</linearGradient>
	<path class="st5" d="M30.4,34.2c-2.6-2.5-4.3-6.1-4.4-10c-0.4,0-0.7-0.1-1.1-0.1H15c-8.2,0-15,6.7-15,14.9v12.1l0,0.2l0.8,0.3
		c6.3,2,11.9,2.9,16.8,3.2v-3.7C17.7,43.1,23.1,36.4,30.4,34.2z"/>
</g>
</svg>
