<svg xmlns="http://www.w3.org/2000/svg" viewBox="0 0 33.91 47"><title>info</title><path d="M737,459.1l-26.15-19.62a3.88,3.88,0,0,0-6.2,3.1v39.23a3.87,3.87,0,0,0,6.2,3.1L737,465.3A3.87,3.87,0,0,0,737,459.1Zm-18.91-9.42a2.3,2.3,0,1,1-2.3,2.3A2.3,2.3,0,0,1,718.09,449.68Zm2.39,22.91-4.51,2a1.59,1.59,0,0,1-.69.17c-1,0-2.61-1-2.45-2l2.33-10.93s-2.19.81-2.62,0a1.64,1.64,0,0,1,.46-2.24l4.21-2.68c1.37-.77,2.76.91,2.5,2.1l-2.21,11.33,1.7-.77a1.62,1.62,0,1,1,1.28,3Z" transform="translate(-704.65 -438.7)" fill="#b6a2c0"/></svg>