<?xml version="1.0" encoding="utf-8"?>
<!-- Generator: Adobe Illustrator 23.0.3, SVG Export Plug-In . SVG Version: 6.00 Build 0)  -->
<svg version="1.1" id="Capa_1" xmlns="http://www.w3.org/2000/svg" xmlns:xlink="http://www.w3.org/1999/xlink" x="0px" y="0px"
	 viewBox="0 0 512 512" style="enable-background:new 0 0 512 512;" xml:space="preserve">
<style type="text/css">
	.st0{fill:#AC87C9;}
</style>
<g>
	<g>
		<path class="st0" d="M159.6,486.9l-16-74.2c-1.9-8.6-10.3-14-19-12.3c-8.6,1.9-14.1,10.4-12.3,19l8.3,38.4C65,419,32,357,32,288
			c0-8.8-7.2-16-16-16s-16,7.2-16,16c0,74.4,34.9,144.3,92.7,189.3L47,480c-8.8,0.5-15.6,8.1-15,16.9c0.5,8.5,7.6,15,16,15
			c0.3,0,0.6,0,1,0l96-5.8c4.7-0.3,9-2.6,11.8-6.3C159.6,496.2,160.6,491.4,159.6,486.9z"/>
	</g>
</g>
<g>
	<g>
		<path class="st0" d="M419.3,34.7L465,32c8.8-0.5,15.6-8.1,15-16.9c-0.5-8.5-7.6-15-16-15c-0.3,0-0.6,0-1,0l-96,5.8
			c-4.7,0.3-9,2.6-11.8,6.3s-3.9,8.5-2.9,13.1l16,74.2c1.9,8.6,10.3,14,19,12.3c8.6-1.9,14.1-10.4,12.3-19l-8.3-38.4
			C447,93,480,155,480,224c0,8.8,7.2,16,16,16s16-7.2,16-16C512,149.6,477.1,79.7,419.3,34.7z"/>
	</g>
</g>
<g>
	<g>
		<path class="st0" d="M459.6,278.6L233.4,52.4c-12.5-12.5-32.8-12.5-45.2,0L52.4,188.1c-12.5,12.5-12.5,32.8,0,45.2l226.3,226.3
			c12.5,12.5,32.8,12.5,45.2,0l135.8-135.8C472.1,311.4,472.1,291.1,459.6,278.6z M278.6,414.4l-181-181L233.4,97.6l181,181
			L278.6,414.4z"/>
	</g>
</g>
</svg>
