<?xml version="1.0" encoding="utf-8"?>
<!-- Generator: Adobe Illustrator 23.0.3, SVG Export Plug-In . SVG Version: 6.00 Build 0)  -->
<svg version="1.1" id="Isolation_Mode" xmlns="http://www.w3.org/2000/svg" xmlns:xlink="http://www.w3.org/1999/xlink" x="0px"
	 y="0px" viewBox="0 0 25.2 17.4" style="enable-background:new 0 0 25.2 17.4;" xml:space="preserve">
<style type="text/css">
	.st0{fill:#E2B300;}
	.st1{fill:#3B2744;}
	.st2{fill:url(#SVGID_1_);}
	.st3{fill:url(#SVGID_2_);}
	.st4{fill:url(#SVGID_3_);}
	.st5{fill:url(#SVGID_4_);}
	.st6{fill:url(#SVGID_5_);}
</style>
<g>
	<path class="st0" d="M1.9,8.9c0,1,0.3,2,0.7,2.9C1.4,11.3,0.5,10,0.5,8.6s0.9-2.7,2.2-3.2c0,0,0,0,0,0c-0.5,1-0.7,2.1-0.7,3.2
		C1.9,8.7,1.9,8.8,1.9,8.9z"/>
	<path class="st0" d="M6.6,10.7c0.1,0.4,0.2,0.8,0.3,1.1v0c-0.4,0.3-0.8,0.6-1.2,0.8c-0.3-0.2-0.5-0.5-0.7-0.8C4.4,11,4,10,3.9,8.9
		c0-0.1,0-0.3,0-0.4c0-0.2,0-0.4,0-0.6C4.1,6.9,4.4,6,5,5.3C5.2,5,5.5,4.7,5.7,4.5c0,0,0,0,0,0C6.2,4.7,6.6,5,6.9,5.3
		C6.8,5.6,6.7,6,6.6,6.4v0C6.5,7.1,6.4,7.8,6.4,8.6v0.1c0,0.1,0,0.2,0,0.3C6.4,9.5,6.5,10.1,6.6,10.7z"/>
	<path class="st1" d="M6.7,3.8C6.6,3.8,6.6,3.8,6.7,3.8C6.3,4,6,4.2,5.7,4.5C5.5,4.7,5.2,5,5,5.3c0,0,0,0,0,0
		c0.3,0.1,0.6,0.3,0.9,0.4C6,5.8,6.1,5.9,6.2,6c0.1,0.1,0.3,0.3,0.4,0.4C6.7,6,6.8,5.6,6.9,5.3c0.1-0.3,0.2-0.7,0.4-1
		C7.1,4.1,6.9,4,6.7,3.8z M6.9,11.9L6.9,11.9c-0.1-0.4-0.2-0.8-0.3-1.1c-0.4,0.5-1,0.9-1.6,1.1c0.2,0.3,0.4,0.6,0.7,0.8
		c0.3,0.3,0.6,0.5,0.9,0.7c0.3-0.1,0.5-0.3,0.7-0.5C7.2,12.5,7.1,12.2,6.9,11.9z M9.4,8.1c0-0.7-0.3-1.4-0.6-2c0,0,0,0,0,0
		C8.7,6.2,8.7,6.4,8.7,6.6c0,0,0,0.1,0,0.1v0c0,0,0,0,0,0.1c0,0,0,0,0,0v0c0,0,0,0,0,0c0,0.2-0.1,0.4-0.1,0.6c0,0.2-0.1,0.4-0.1,0.5
		c0,0.2,0,0.3,0,0.5v0.1c0,0.8,0.1,1.6,0.4,2.4c0.4-0.7,0.6-1.5,0.6-2.4c0,0,0-0.1,0-0.1C9.4,8.4,9.4,8.3,9.4,8.1z"/>
</g>
<linearGradient id="SVGID_1_" gradientUnits="userSpaceOnUse" x1="1.6053" y1="8.93" x2="1.6053" y2="5.36">
	<stop  offset="0" style="stop-color:#9A6A3A"/>
	<stop  offset="0.6662" style="stop-color:#DFB000"/>
	<stop  offset="0.9949" style="stop-color:#FFFFFF"/>
</linearGradient>
<path class="st2" d="M2.6,5.4c-0.5,1-0.7,2.1-0.7,3.2c0,0.1,0,0.3,0,0.4H1.6c-0.7,0-1.2-0.7-1-1.4c0-0.1,0-0.1,0.1-0.2
	C1,6.4,1.8,5.7,2.6,5.4z"/>
<linearGradient id="SVGID_2_" gradientUnits="userSpaceOnUse" x1="5.2779" y1="8.93" x2="5.2779" y2="5.2701">
	<stop  offset="0" style="stop-color:#9A6A3A"/>
	<stop  offset="0.6662" style="stop-color:#DFB000"/>
	<stop  offset="0.9949" style="stop-color:#FFFFFF"/>
</linearGradient>
<path class="st3" d="M6.4,8.6L6.4,8.6c0,0.2,0,0.3,0,0.4H3.9c0-0.1,0-0.3,0-0.4c0-0.2,0-0.4,0-0.6C4.1,6.9,4.4,6,5,5.3c0,0,0,0,0,0
	c0.3,0.1,0.6,0.3,0.9,0.4C6,5.8,6.1,5.9,6.2,6c0.1,0.1,0.3,0.3,0.4,0.4v0C6.5,7.1,6.4,7.8,6.4,8.6z"/>
<g>
	<path class="st0" d="M7.3,12.8c-0.1-0.3-0.3-0.6-0.4-1v0c-0.1-0.4-0.2-0.8-0.3-1.1c-0.1-0.6-0.2-1.2-0.2-1.8c0-0.1,0-0.2,0-0.3V8.6
		c0-0.7,0.1-1.5,0.2-2.2v0C6.7,6,6.8,5.6,6.9,5.3c0.1-0.3,0.2-0.7,0.4-1c0.2-0.3,0.3-0.7,0.5-1C7.4,3.4,7,3.6,6.7,3.8c0,0,0,0,0,0
		C6.3,4,6,4.2,5.7,4.5C5.5,4.7,5.2,5,5,5.3C4.4,6,4.1,6.9,4,7.9c0,0.2,0,0.4,0,0.6c0,0.1,0,0.3,0,0.4C4,10,4.4,11,5,11.9
		c0.2,0.3,0.4,0.6,0.7,0.8c0.3,0.3,0.6,0.5,0.9,0.7c0.4,0.3,0.8,0.5,1.3,0.6C7.7,13.6,7.5,13.2,7.3,12.8z M16.1,8.2
		c-0.1-1.4-0.6-2.7-1.5-3.8c-0.8-1-1.9-1.8-3.2-2.2c0,0,0,0-0.1,0l-0.9,0.8c0,0,0,0-0.1,0.1C9.7,4,9.1,5,8.8,6.1
		C8.7,6.2,8.7,6.4,8.7,6.6c0,0,0,0.1,0,0.1v0c0,0,0,0,0,0.1c0,0,0,0,0,0v0c0,0,0,0,0,0c0,0.2-0.1,0.4-0.1,0.6c0,0.2-0.1,0.4-0.1,0.5
		c0,0.2,0,0.3,0,0.5v0.1c0,0.8,0.1,1.6,0.4,2.4c0.4,1.1,1,2.1,1.7,3c0.3,0.3,0.6,0.6,0.9,0.8c1.3-0.4,2.4-1.2,3.3-2.2
		c0.9-1.1,1.5-2.6,1.5-4.1C16.1,8.4,16.1,8.3,16.1,8.2z"/>
	<path class="st1" d="M17.1,8.2C17,6.9,16.7,5.7,16,4.7c-0.8-1.4-2.1-2.5-3.6-3.1c0,0,0,0-0.1,0c-0.3,0.2-0.7,0.4-1,0.7l-0.9,0.8
		c0,0,0,0,0.1,0c1.7,0.3,3.1,1.4,3.8,2.8c0.4,0.6,0.6,1.4,0.6,2.1c0,0,0,0.1,0,0.2c0,0.1,0,0.3,0,0.4c0,0,0,0.1,0,0.1
		c0,0.9-0.3,1.8-0.7,2.5c-0.8,1.5-2.2,2.5-3.9,2.8c0.3,0.3,0.6,0.6,0.9,0.8c0.3,0.3,0.6,0.5,1,0.7c1.5-0.6,2.8-1.7,3.6-3.1
		c0.7-1.1,1.1-2.5,1.1-3.9C17.1,8.4,17.1,8.3,17.1,8.2z"/>
</g>
<linearGradient id="SVGID_3_" gradientUnits="userSpaceOnUse" x1="5.9162" y1="8.64" x2="5.9162" y2="3.29">
	<stop  offset="0" style="stop-color:#9A6A3A"/>
	<stop  offset="0.6662" style="stop-color:#DFB000"/>
	<stop  offset="0.9949" style="stop-color:#FFFFFF"/>
</linearGradient>
<path class="st4" d="M7.9,3.3c-0.2,0.3-0.4,0.7-0.5,1c-0.1,0.3-0.3,0.7-0.4,1C6.8,5.6,6.7,6,6.6,6.4v0C6.5,7.1,6.4,7.8,6.4,8.6v0.1
	l-1.8,0C4.2,8.6,3.9,8.3,4,7.9C4.1,6.9,4.5,6,5,5.3C5.3,5,5.5,4.7,5.8,4.5C6,4.2,6.3,4,6.7,3.8C7,3.6,7.4,3.4,7.9,3.3z"/>
<linearGradient id="SVGID_4_" gradientUnits="userSpaceOnUse" x1="11.743" y1="8.7101" x2="11.743" y2="3.1256">
	<stop  offset="0" style="stop-color:#9A6A3A"/>
	<stop  offset="0.6662" style="stop-color:#DFB000"/>
	<stop  offset="0.9949" style="stop-color:#FFFFFF"/>
</linearGradient>
<path class="st5" d="M15.1,8.6L15.1,8.6L15.1,8.6l-0.7,0.1l-5,0l-1,0V8.6c0-0.6,0.1-1.2,0.2-1.8c0,0,0,0,0,0c0,0,0-0.1,0-0.1
	c0-0.2,0.1-0.4,0.1-0.6C9.1,5,9.7,4,10.5,3.1c0,0,0,0,0.1,0c1.7,0.3,3.1,1.4,3.9,2.8c0.3,0.6,0.6,1.3,0.6,2.1c0,0,0,0.1,0,0.2
	C15.1,8.4,15.1,8.5,15.1,8.6z"/>
<g>
	<path class="st0" d="M24.7,8.6c0,4.5-3.7,8.2-8.2,8.2c-1.5,0-3-0.4-4.2-1.1c-0.4-0.2-0.7-0.5-1-0.7c-0.3-0.3-0.6-0.5-0.9-0.8
		c-0.8-0.9-1.4-1.9-1.7-3c-0.2-0.8-0.4-1.6-0.4-2.4V8.6c0-0.6,0.1-1.2,0.2-1.8c0,0,0,0,0,0c0,0,0-0.1,0-0.1c0-0.2,0.1-0.4,0.1-0.6
		C9.1,5,9.7,4,10.5,3.1c0,0,0,0,0.1-0.1l0.9-0.8c0.3-0.3,0.7-0.5,1-0.7c1.2-0.7,2.7-1.1,4.2-1.1C21.1,0.4,24.7,4.1,24.7,8.6z"/>
</g>
<linearGradient id="SVGID_5_" gradientUnits="userSpaceOnUse" x1="16.5578" y1="8.2181" x2="16.5578" y2="0.4577">
	<stop  offset="0" style="stop-color:#9A6A3A"/>
	<stop  offset="0.6662" style="stop-color:#DFB000"/>
	<stop  offset="0.9949" style="stop-color:#FFFFFF"/>
</linearGradient>
<path class="st6" d="M23.3,8.2c0.8,0,1.4-0.7,1.2-1.5c-0.9-3.6-4.1-6.3-7.9-6.3S9.5,3.1,8.6,6.7C8.4,7.5,9,8.2,9.8,8.2H23.3z"/>
<path class="st1" d="M14.4,12.2V4.9c0-0.6,0.7-0.9,1.1-0.6L20.4,8c0.4,0.3,0.4,0.9,0,1.1l-4.8,3.6C15.1,13.1,14.4,12.8,14.4,12.2z"
	/>
</svg>
