<?xml version="1.0" encoding="utf-8"?>
<!-- Generator: Adobe Illustrator 23.0.3, SVG Export Plug-In . SVG Version: 6.00 Build 0)  -->
<svg version="1.1" id="Isolation_Mode" xmlns="http://www.w3.org/2000/svg" xmlns:xlink="http://www.w3.org/1999/xlink" x="0px"
	 y="0px" viewBox="0 0 34 34" style="enable-background:new 0 0 34 34;" xml:space="preserve">
<style type="text/css">
	.st0{fill:#EDEDED;}
</style>
<g>
	<g>
		<path class="st0" d="M30.8,20.5H3.2c-1.8,0-3.2-1.4-3.2-3.2v-0.5c0-1.8,1.4-3.2,3.2-3.2h27.5c1.8,0,3.2,1.4,3.2,3.2v0.5
			C34,19.1,32.6,20.5,30.8,20.5z"/>
	</g>
	<g>
		<path class="st0" d="M13.5,30.8V3.2c0-1.8,1.4-3.2,3.2-3.2h0.5c1.8,0,3.2,1.4,3.2,3.2v27.5c0,1.8-1.4,3.2-3.2,3.2h-0.5
			C14.9,34,13.5,32.6,13.5,30.8z"/>
	</g>
</g>
</svg>
