<?xml version="1.0" encoding="utf-8"?>
<!-- Generator: Adobe Illustrator 23.0.3, SVG Export Plug-In . SVG Version: 6.00 Build 0)  -->
<svg version="1.1" id="Capa_1" xmlns="http://www.w3.org/2000/svg" xmlns:xlink="http://www.w3.org/1999/xlink" x="0px" y="0px"
	 viewBox="0 0 487.2 487.2" style="enable-background:new 0 0 487.2 487.2;" xml:space="preserve">
<style type="text/css">
	.st0{fill:#BFB9C6;}
</style>
<g>
	<g>
		<path class="st0" d="M55.3,203.6c15.7,0,29.8-9.4,35.9-23.9c25-59.6,83.8-101.6,152.4-101.6c37.8,0,72.4,13,100.2,34.4l-21.8,3.4
			c-7.4,1.2-13.2,7.1-14.2,14.5c-1,7.5,3,14.7,9.9,17.8l119.7,53.9c5.2,2.4,11.3,1.9,16.2-1.2c4.8-3.1,7.8-8.5,7.8-14.2L462,54.8
			c0-7.5-4.9-14.1-12-16.3c-7.2-2.2-14.9,0.6-19.1,6.8l-16.5,24.8C370.4,26.8,310.1,0,243.6,0C142.8,0,56.1,61.6,19.2,149.1
			c-5.1,12.1-3.8,26,3.4,37C29.9,197,42.2,203.6,55.3,203.6z"/>
		<path class="st0" d="M464.6,301.2c-7.3-11-19.6-17.6-32.7-17.6c-15.7,0-29.8,9.4-35.9,23.9c-25,59.6-83.8,101.6-152.4,101.6
			c-37.8,0-72.4-13-100.2-34.4l21.8-3.4c7.4-1.2,13.2-7.1,14.2-14.5c1-7.5-3-14.7-9.9-17.8L49.8,285.1c-5.3-2.4-11.3-1.9-16.2,1.2
			c-4.8,3.1-7.8,8.5-7.8,14.2l-0.6,131.9c0,7.5,4.9,14.1,12,16.3c7.2,2.2,14.9-0.6,19.1-6.8l16.5-24.8
			c44,43.3,104.3,70.1,170.8,70.1c100.8,0,187.5-61.6,224.4-149.1C473.2,326,471.9,312.2,464.6,301.2z"/>
	</g>
</g>
</svg>
