<?xml version="1.0" encoding="utf-8"?>
<!-- Generator: Adobe Illustrator 23.0.3, SVG Export Plug-In . SVG Version: 6.00 Build 0)  -->
<svg version="1.1" id="Layer_2" xmlns="http://www.w3.org/2000/svg" xmlns:xlink="http://www.w3.org/1999/xlink" x="0px" y="0px"
	 viewBox="0 0 82.5 71" style="enable-background:new 0 0 82.5 71;" xml:space="preserve">
<style type="text/css">
	.st0{fill:#C2B9C7;}
</style>
<path class="st0" d="M13.2,28.3L0,41.9l5,5.4l4.3-4.1c0,0,2.5,9.6,7.3,16.1C17.3,60,25,69.9,40,71c10,0.1,18.5-2.8,25.1-9.8
	c0.2-0.2,0.4-0.5,0.6-0.7c7.1-9,7.3-12.9,7.4-14.3l-3.9,2.6l-3.4-2.6c0,0-1.2,11.1-16.4,16.6c-0.2,0.1-0.5,0.2-0.8,0.2
	c-4.7,1.1-9.2,1.7-15.8-0.6c-0.2-0.1-0.5-0.2-0.7-0.3c-5.9-2.6-10.5-6.8-13-11.6c-0.7-1.3-2.5-7.6-2.5-7.6l4.4,4.4l5.6-5.7
	L13.2,28.3z"/>
<path class="st0" d="M69.3,42.6l13.2-13.5l-5-5.4l-4.3,4.1c0,0-2.5-9.6-7.3-16.1C65.3,11,57.5,1.1,42.5,0C32.5-0.1,24,2.8,17.4,9.8
	c-0.2,0.2-0.4,0.5-0.6,0.7c-7.1,9-7.3,12.9-7.4,14.3l3.9-2.6l3.4,2.6c0,0,1.2-11.1,16.4-16.6C33.2,8.1,33.5,8,33.8,8
	c4.7-1.1,9.2-1.7,15.8,0.6c0.2,0.1,0.5,0.2,0.7,0.3c5.9,2.6,10.5,6.8,13,11.6c0.7,1.3,2.5,7.6,2.5,7.6l-4.4-4.4l-5.6,5.7L69.3,42.6z
	"/>
</svg>
