<?xml version="1.0" encoding="utf-8"?>
<!-- Generator: Adobe Illustrator 23.0.1, SVG Export Plug-In . SVG Version: 6.00 Build 0)  -->
<svg version="1.1" id="Layer_1" xmlns="http://www.w3.org/2000/svg" xmlns:xlink="http://www.w3.org/1999/xlink" x="0px" y="0px"
	 viewBox="0 0 54 45.4" style="enable-background:new 0 0 54 45.4;" xml:space="preserve">
<style type="text/css">
	.st0{fill:url(#SVGID_1_);}
	.st1{fill:url(#SVGID_2_);}
	.st2{fill:url(#SVGID_3_);}
	.st3{fill:url(#SVGID_4_);}
	.st4{fill:url(#SVGID_5_);}
	.st5{fill:url(#SVGID_6_);}
</style>
<g>
	<g>
		<linearGradient id="SVGID_1_" gradientUnits="userSpaceOnUse" x1="41.9955" y1="51.3834" x2="40.0206" y2="-6.2994">
			<stop  offset="0.6662" style="stop-color:#818181"/>
			<stop  offset="0.9949" style="stop-color:#FFFFFF"/>
		</linearGradient>
		<path class="st0" d="M32.6,7.8c2.5,1.6,4.2,4.2,4.6,7.3c1,0.5,2.1,0.7,3.3,0.7c4.4,0,7.9-3.5,7.9-7.9c0-4.4-3.5-7.9-7.9-7.9
			C36.2,0,32.7,3.5,32.6,7.8z"/>
	</g>
	<g>
		<g>
			<linearGradient id="SVGID_2_" gradientUnits="userSpaceOnUse" x1="40.7345" y1="81.4725" x2="23.948" y2="-0.814">
				<stop  offset="0" style="stop-color:#333333"/>
				<stop  offset="0.4819" style="stop-color:#818181"/>
				<stop  offset="0.9949" style="stop-color:#FFFFFF"/>
			</linearGradient>
			<path class="st1" d="M27.4,24c4.4,0,7.9-3.5,7.9-7.9s-3.5-7.9-7.9-7.9s-7.9,3.5-7.9,7.9S23,24,27.4,24z"/>
		</g>
		<g>
			<linearGradient id="SVGID_3_" gradientUnits="userSpaceOnUse" x1="36.3844" y1="82.3599" x2="19.598" y2="7.340281e-02">
				<stop  offset="0" style="stop-color:#333333"/>
				<stop  offset="0.4819" style="stop-color:#818181"/>
				<stop  offset="0.9949" style="stop-color:#FFFFFF"/>
			</linearGradient>
			<path class="st2" d="M30.8,24.6H24c-5.6,0-10.1,4.5-10.1,10.1v8.2l0,0.1l0.6,0.2c5.3,1.7,10,2.2,13.8,2.2c7.5,0,11.8-2.1,12-2.3
				l0.5-0.3h0.1v-8.2C40.9,29.1,36.3,24.6,30.8,24.6z"/>
		</g>
	</g>
	<g>
		<linearGradient id="SVGID_4_" gradientUnits="userSpaceOnUse" x1="44.9979" y1="51.2806" x2="43.023" y2="-6.4022">
			<stop  offset="0.6662" style="stop-color:#818181"/>
			<stop  offset="0.9949" style="stop-color:#FFFFFF"/>
		</linearGradient>
		<path class="st3" d="M43.9,16.4h-6.7c-0.1,2.7-1.2,5.1-3,6.8c5,1.5,8.6,6.1,8.6,11.5v2.5c6.6-0.2,10.4-2.1,10.6-2.2l0.5-0.3H54
			v-8.2C54,20.9,49.5,16.4,43.9,16.4z"/>
	</g>
	<g>
		<linearGradient id="SVGID_5_" gradientUnits="userSpaceOnUse" x1="15.0206" y1="52.3069" x2="13.0457" y2="-5.3759">
			<stop  offset="0.6662" style="stop-color:#818181"/>
			<stop  offset="0.9949" style="stop-color:#FFFFFF"/>
		</linearGradient>
		<path class="st4" d="M13.5,15.8c1.5,0,3-0.5,4.2-1.2c0.4-2.5,1.7-4.7,3.7-6.3c0-0.1,0-0.3,0-0.4c0-4.4-3.5-7.9-7.9-7.9
			C9.1,0,5.6,3.5,5.6,7.9C5.6,12.3,9.1,15.8,13.5,15.8z"/>
	</g>
	<g>
		<linearGradient id="SVGID_6_" gradientUnits="userSpaceOnUse" x1="11.111" y1="52.4408" x2="9.1361" y2="-5.242">
			<stop  offset="0" style="stop-color:#333333"/>
			<stop  offset="0.4819" style="stop-color:#818181"/>
			<stop  offset="0.9949" style="stop-color:#FFFFFF"/>
		</linearGradient>
		<path class="st5" d="M20.6,23.2c-1.8-1.7-2.9-4.1-3-6.8c-0.2,0-0.5,0-0.7,0h-6.7C4.5,16.4,0,20.9,0,26.5v8.2l0,0.1L0.6,35
			c4.3,1.3,8.1,2,11.4,2.1v-2.5C12,29.3,15.6,24.7,20.6,23.2z"/>
	</g>
</g>
</svg>
