<?xml version="1.0" encoding="utf-8"?>
<!-- Generator: Adobe Illustrator 23.0.3, SVG Export Plug-In . SVG Version: 6.00 Build 0)  -->
<svg version="1.1" id="Isolation_Mode" xmlns="http://www.w3.org/2000/svg" xmlns:xlink="http://www.w3.org/1999/xlink" x="0px"
	 y="0px" viewBox="0 0 40.4 40.4" style="enable-background:new 0 0 40.4 40.4;" xml:space="preserve">
<style type="text/css">
	.st0{fill:#B6A2C0;}
</style>
<title>volume off</title>
<path class="st0" d="M30.3,20.2c0-3.8-2.2-7.3-5.6-9v5l5.5,5.5C30.3,21.2,30.3,20.7,30.3,20.2z M35.9,20.2c0,2-0.4,4.1-1.2,5.9
	l3.4,3.4c1.5-2.9,2.3-6.1,2.3-9.3c0-9.4-6.5-17.6-15.7-19.7v4.6C31.4,7.1,35.9,13.2,35.9,20.2L35.9,20.2z M2.9,0L0,2.8l10.6,10.6H0
	v13.5h8.9l11.3,11.2V23l9.5,9.5c-1.5,1.2-3.2,2.1-5,2.7v4.6c3-0.7,5.9-2.1,8.3-4.1l4.6,4.6l2.8-2.8L20.2,17.3L2.9,0z M20.2,2.2
	l-4.7,4.7l4.7,4.7V2.2z"/>
</svg>
